<svg width="512" height="512" xmlns="http://www.w3.org/2000/svg" xml:space="preserve" enable-background="new 0 0 512 512" version="1.1">

 <g>
  <title>Layer 1</title>
  <path id="svg_2" d="m266.00674,17.19951c7.81546,1.26146 14.35468,5.03727 20.09086,10.31861c28.89965,26.60808 43.21459,59.63409 43.40194,98.8503c0.039,8.16564 0.08048,16.33251 -0.01901,24.4971c-0.06241,5.11968 1.64822,8.76569 7.31287,9.67037c0,4.08349 0,8.05377 0,12.65915c-7.62442,1.11285 -7.32575,7.05975 -7.32166,13.11621c0.05267,78.49182 0.02924,156.98364 0.04837,235.47549c0.00113,4.5741 0.0177,9.26511 -3.82339,12.41931c-2.08481,1.71201 -4.90186,3.44199 -7.44477,3.52933c-11.10479,0.3815 -22.23019,0.16409 -33.75873,0.16409c0,-2.14041 0.00004,-3.94317 -0.00002,-5.74591c-0.00068,-28.83032 0.04739,-57.66079 -0.02155,-86.49093c-0.03751,-15.68131 -8.78854,-26.56867 -23.21872,-29.21091c-14.16847,-2.59439 -29.7323,7.85864 -31.04326,22.18527c-1.16469,12.72803 -0.5925,25.62641 -0.5318,38.4484c0.01883,3.98175 2.58334,6.32577 6.93103,7.49508c0.37081,4.47126 0.37674,8.40095 0.38268,12.3306c-5.51958,0.99857 -7.60945,4.43576 -7.52707,9.87445c0.15498,10.23306 0.04469,20.47019 0.04469,31.19391c-3.10023,0 -5.85463,0 -9.06706,-0.45355c-1.4532,-4.43671 -3.30991,-8.41831 -3.31691,-12.40317c-0.15614,-88.73679 -0.10834,-177.47389 0.3235,-266.1962c4.3647,0.51548 8.30092,1.38642 12.24976,1.44796c12.15506,0.1894 24.31509,0.10821 36.47287,0.05584c8.15661,-0.03512 16.35153,0.265 24.4602,-0.41208c13.21485,-1.10345 23.4628,-12.86293 23.80628,-26.47784c0.33374,-13.22773 -9.35938,-26.69546 -22.17161,-27.24553c-23.58511,-1.0126 -47.24575,-0.27646 -70.8748,-0.22106c-1.12942,0.00265 -2.25775,0.46801 -3.37167,0.32126c1.16699,-6.04767 2.00232,-11.78562 3.52492,-17.33499c7.33368,-26.72893 21.50514,-49.29366 41.88727,-68.02767c1.10177,-1.0127 1.72747,-2.54335 2.57479,-3.83289z" fill="#F0F4FA"/>
  <path id="svg_3" d="m336.02399,457.99902c-3.80954,0 -7.12296,0 -10.57602,0c-1.16498,-4.04425 -0.31433,-6.22613 3.75574,-8.12017c8.92163,-4.1518 13.91403,-11.60123 14.99868,-21.46262c0.29041,-2.64002 0.3125,-5.31891 0.31324,-7.98001c0.01647,-59.13275 0.01266,-118.26547 0.01269,-177.39821c0,-1.96642 0,-3.93283 0,-7.36707c6.85388,2.08411 13.11102,3.45263 18.93311,5.86928c11.80676,4.90073 21.45199,12.80828 28.46075,23.52371c34.06113,52.07471 68.01971,104.21653 101.95789,156.37152c5.13851,7.89676 5.73053,16.27042 1.05487,24.5702c-4.55756,8.09011 -11.81257,11.9024 -21.03699,11.98071c-6.29721,0.05344 -12.59525,0.01022 -19.37219,0.01022c0,-10.37442 0.0252,-20.31915 -0.00525,-30.26367c-0.06357,-20.73798 -8.93271,-36.37366 -27.77246,-45.34042c-29.69193,-14.1319 -64.89411,6.65365 -66.86524,39.44464c-0.70785,11.77524 -0.11361,23.62881 -0.11361,36.16189c-8.07859,0 -15.66385,0 -23.74521,0z" fill="#65B0FB"/>
  <path id="svg_4" d="m163.68262,237.18365c1.92102,-0.24818 3.40245,-0.41069 5.7891,-0.6725c0,2.27906 0,4.335 0,6.39093c0.00016,59.64043 0.08307,119.28109 -0.06269,178.92116c-0.03293,13.47171 4.83534,23.44522 17.40291,29.35782c1.54657,0.72763 1.99281,3.79404 3.29985,6.50418c-12.47678,0 -23.70864,0 -35.58361,0c0,-9.10293 0.16181,-18.19287 -0.06173,-27.27325c-0.1305,-5.29978 -0.28106,-10.72003 -1.44922,-15.85242c-5.21814,-22.9259 -26.37539,-38.21838 -49.89181,-36.46091c-23.1075,1.72693 -41.93811,20.6749 -43.2949,44.07666c-0.57773,9.96445 -0.26863,19.98044 -0.35654,29.97309c-0.01578,1.79263 -0.00226,3.58551 -0.00226,5.55233c-8.20914,0 -16.1267,0.90772 -23.75793,-0.18469c-17.08264,-2.4454 -25.07309,-21.15564 -15.60122,-36.00457c13.0648,-20.48151 26.48834,-40.73414 39.75156,-61.08912c19.89464,-30.53216 39.91042,-60.98651 59.62346,-91.63553c10.51415,-16.347 24.82769,-27.0398 44.19503,-31.60318z" fill="#65B0FB"/>
  <path id="svg_5" d="m217.02603,158.91176c-0.00914,88.73706 -0.05694,177.47416 0.0992,266.21095c0.007,3.98486 1.86371,7.96646 2.86995,12.32596c-7.64397,0.42612 -15.30313,0.65244 -22.95285,0.47391c-7.05713,-0.16474 -11.74208,-4.81711 -12.40181,-11.8288c-0.15547,-1.6524 -0.12584,-3.32532 -0.12593,-4.9888c-0.00504,-97.91193 0.02475,-195.82387 -0.01815,-293.73576c-0.01744,-39.77773 14.28998,-73.27615 43.75167,-100.08403c10.48298,-9.53873 22.90458,-13.11 37.36151,-10.23035c-0.4502,1.43421 -1.0759,2.96486 -2.17767,3.97756c-20.38213,18.73401 -34.55359,41.29874 -41.88727,68.02767c-1.5226,5.54937 -2.35793,11.28732 -3.83878,17.50852c-10.13762,4.86708 -16.55291,11.96789 -17.83043,22.83192c-1.64642,14.00144 5.14186,23.32904 17.15056,29.51125z" fill="#E8ECF4"/>
  <path id="svg_6" d="m237.34192,397.01285c-0.35628,-4.03143 -0.36221,-7.96112 -0.36609,-12.33844c5.93886,-1.97421 7.45044,-3.72003 7.51775,-9.78696c0.11819,-10.65668 -0.08968,-21.32016 0.21084,-31.9703c0.16582,-5.87565 3.97655,-10.03428 9.4455,-11.43833c4.9774,-1.27786 10.78068,0.89557 13.30357,5.56839c1.20905,2.23938 1.92883,5.03943 1.93494,7.58777c0.1116,46.63303 0.12936,93.26642 0.0347,139.89951c-0.01633,8.04269 -5.27893,13.40286 -12.41971,13.41098c-7.16027,0.00814 -12.25045,-5.14808 -12.31537,-13.40274c-0.20171,-25.64573 -0.1758,-51.29368 -0.13231,-76.94059c0.00871,-5.147 -1.03287,-9.30587 -7.21382,-10.58929z" fill="#87C6FE"/>
  <path id="svg_7" d="m112.10394,393.69955c14.14451,1.6673 26.29984,13.66904 26.92954,28.25281c0.76631,17.74784 0.35847,35.54651 0.4505,53.32328c0.01634,3.15713 0.10205,6.31912 -0.03231,9.47085c-0.35653,8.36405 -5.22079,13.12756 -13.6077,13.22849c-7.975,0.09594 -15.95219,0.01199 -24.55451,-0.37482c-1.84754,-5.27377 -4.01807,-10.1453 -4.12281,-15.06088c-0.40997,-19.23923 -0.18321,-38.49234 -0.1433,-57.74021c0.00408,-1.96743 0.21152,-3.95663 0.54638,-5.89746c1.75457,-10.1698 7.00964,-18.34647 14.53421,-25.20206z" fill="#96E8FF"/>
  <path id="svg_8" d="m412.10397,393.69955c14.14457,1.66733 26.29975,13.66886 26.92951,28.25281c0.76642,17.74781 0.35849,35.54648 0.45056,53.32321c0.01633,3.15714 0.10202,6.3191 -0.03235,9.47083c-0.35663,8.36417 -5.22067,13.12756 -13.60763,13.22852c-7.97501,0.096 -15.95221,0.01205 -24.55457,-0.37476c-1.84766,-5.27374 -4.01837,-10.14526 -4.12311,-15.06085c-0.40994,-19.23923 -0.18317,-38.49234 -0.14319,-57.74021c0.00409,-1.96744 0.21167,-3.95663 0.54651,-5.89746c1.75458,-10.16983 7.00971,-18.34646 14.53427,-25.20209z" fill="#96E8FF"/>
  <path id="svg_9" d="m111.75417,393.48511c-7.1748,7.07003 -12.42987,15.2467 -14.18444,25.4165c-0.33486,1.94083 -0.5423,3.93003 -0.54638,5.89746c-0.03991,19.24787 -0.26667,38.50098 0.1433,57.74021c0.10474,4.91558 2.27527,9.78711 3.65864,14.98614c-4.32072,0.35895 -8.80687,0.5466 -13.28527,0.43195c-7.59634,-0.19446 -12.80028,-4.81565 -12.87609,-12.3284c-0.20958,-20.76725 -0.56922,-41.55844 0.17829,-62.30243c0.68738,-19.07532 16.6539,-31.62729 36.91195,-29.84143z" fill="#80DAFE"/>
  <path id="svg_10" d="m411.75418,393.48511c-7.17477,7.07007 -12.4299,15.2467 -14.18448,25.41653c-0.33484,1.94083 -0.54242,3.93002 -0.54651,5.89746c-0.03998,19.24787 -0.26675,38.50098 0.14319,57.74021c0.10474,4.91559 2.27545,9.78711 3.65894,14.98611c-4.32068,0.35892 -8.80683,0.54657 -13.28525,0.43195c-7.59634,-0.19446 -12.80029,-4.81558 -12.87613,-12.32831c-0.20959,-20.76724 -0.56924,-41.55847 0.17832,-62.30246c0.6874,-19.07535 16.65399,-31.62744 36.91192,-29.84149z" fill="#80DAFE"/>
  <path id="svg_11" d="m204.05823,466.42444c-0.02761,-4.57724 -0.02761,-8.71524 -0.02761,-13.13648c8.4516,0 16.68053,0 25.18433,0c0,8.1203 0,16.17694 0,24.2262c-15.83382,2.41617 -22.30862,-0.33795 -25.15672,-11.08972z" fill="#CCD1E0"/>
  <path id="svg_12" d="m284.51306,467.99084c-0.00006,-5.14651 -0.00006,-9.79574 -0.00006,-14.7171c8.44846,0 16.68982,0 24.93268,0.00519c2.47928,20.22138 -1.53342,26.75378 -24.93259,24.35565c0,-2.9833 0,-6.06485 -0.00003,-9.64374z" fill="#CCD1E0"/>
  <path id="svg_13" d="m217.44873,158.92651c-12.4314,-6.19696 -19.21968,-15.52456 -17.57326,-29.526c1.27752,-10.86403 7.69281,-17.96484 17.81551,-22.4353c1.4427,-0.4234 2.57103,-0.88876 3.70045,-0.89141c23.62905,-0.0554 47.28969,-0.79154 70.8748,0.22106c12.81223,0.55007 22.50535,14.0178 22.17161,27.24553c-0.34348,13.61491 -10.59143,25.37439 -23.80628,26.47784c-8.10867,0.67708 -16.30359,0.37696 -24.4602,0.41208c-12.15778,0.05237 -24.31781,0.13356 -36.47287,-0.05584c-3.94884,-0.06154 -7.88506,-0.93248 -12.24976,-1.44796m39.05127,-38.2517c-9.49277,0.0023 -18.98642,-0.07407 -28.47806,0.03055c-8.33357,0.09186 -13.25233,4.73444 -13.2606,12.24808c-0.00829,7.54247 4.91244,12.24608 13.24609,12.2818c19.3183,0.0828 38.63741,0.08121 57.95574,0.00092c8.29894,-0.03449 13.27529,-4.77448 13.27355,-12.2762c-0.00176,-7.53454 -4.89975,-12.16145 -13.25866,-12.25445c-9.49161,-0.10563 -18.98529,-0.02882 -29.47806,-0.0307z" fill="#040404"/>
  <path id="svg_14" d="m257,120.6745c9.99277,0.00219 19.48645,-0.07462 28.97806,0.03101c8.35891,0.093 13.2569,4.71991 13.25866,12.25445c0.00174,7.50172 -4.97461,12.24171 -13.27355,12.2762c-19.31833,0.08029 -38.63744,0.08188 -57.95574,-0.00092c-8.33365,-0.03572 -13.25438,-4.73933 -13.24609,-12.2818c0.00827,-7.51364 4.92703,-12.15622 13.2606,-12.24808c9.49164,-0.10462 18.98529,-0.02825 28.97806,-0.03086z" fill="#616776"/>
 </g>
</svg>