<svg width="512" height="512" xmlns="http://www.w3.org/2000/svg" xml:space="preserve" enable-background="new 0 0 512 512" version="1.1">

 <g>
  <title>Layer 1</title>
  <path id="svg_2" d="m160.22652,370.77564c-0.72911,-5.41077 -4.1736,-6.90751 -9.18476,-6.89359c-31.49146,0.0874 -62.98355,-0.01273 -94.47463,0.12851c-3.27848,0.01471 -4.99302,-0.95175 -6.5588,-3.8335c-10.63703,-19.57693 -21.4744,-39.04504 -32.43126,-58.8818c1.09422,-0.79721 2.07143,-1.62784 3.15534,-2.28165c35.32632,-21.30753 70.64425,-42.62927 106.04413,-63.81402c2.13438,-1.27732 4.93336,-2.03643 7.42437,-2.0396c81.81165,-0.1041 163.62346,-0.09737 245.4352,-0.02565c2.21561,0.00195 4.75516,0.35826 6.59756,1.46138c36.10977,21.62034 72.13874,43.37572 108.18073,65.10924c0.55453,0.33438 1.06543,0.74112 1.86075,1.2995c-0.56311,1.23117 -1.01871,2.42697 -1.63099,3.53625c-10.20648,18.49112 -20.5259,36.92099 -30.56344,55.50314c-1.69876,3.1449 -3.65173,3.95417 -6.98926,3.94779c-49.65341,-0.09485 -99.3071,-0.04526 -148.96063,-0.09824c-4.5701,-0.00485 -8.3476,0.75589 -9.8682,6.47074c-17.03732,0.4371 -33.55877,0.44967 -50.14294,0.10095c-0.96896,-4.87912 -3.87956,-6.62097 -8.30832,-6.56574c-6.98645,0.08716 -13.97542,0.08057 -20.96211,0.00434c-4.75435,-0.05182 -7.52062,2.09008 -8.62529,6.88098c-16.96347,0.02212 -33.48045,0.00656 -49.99745,-0.00903m62.36518,-90.58811c-0.61451,1.36194 -1.28785,2.70071 -1.83445,4.08939c-5.82906,14.80902 -2.23615,31.27316 9.20578,42.28195c11.37329,10.94269 28.18416,13.94311 42.63139,7.60892c14.53226,-6.37156 23.67221,-20.61844 23.38806,-36.4564c-0.30722,-17.12594 -12.08191,-32.25668 -28.60989,-36.76437c-17.5219,-4.77878 -34.5004,2.32355 -44.78089,19.24051m-83.04632,-7.24432c-13.85765,8.43615 -18.9699,23.26562 -12.82766,37.21005c5.82784,13.23068 20.45055,20.15439 34.23945,16.21204c16.43858,-4.69986 25.27402,-21.90644 19.41891,-37.81726c-5.99205,-16.28302 -23.52966,-23.24845 -40.8307,-15.60483m249.70569,30.66134c3.68454,-21.05719 -15.69849,-38.80859 -36.09277,-33.05447c-14.02546,3.95715 -22.69748,16.92859 -21.12144,31.59277c1.44025,13.40003 12.887,24.13867 26.85767,25.19629c14.31198,1.08347 26.55786,-8.2027 30.35654,-23.73459z" fill="#72C2F8"/>
  <path id="svg_3" d="m295.99994,219.07863c-53.77638,0 -107.05275,0 -160.79479,0c0.38642,-14.05754 3.16146,-27.26166 8.04232,-40.02048c17.57429,-45.94022 61.99939,-77.04216 111.30706,-78.02657c6.20536,-0.1239 7.36805,-0.92484 10.4632,-7.98255c11.10693,2.13042 22.48022,4.31194 34.48071,6.61375c-1.91479,7.79437 2.99677,9.91276 8.24598,12.45895c44.37844,21.5263 67.25015,57.53772 71.53039,106.9569c-27.94574,0 -55.36029,0 -83.27487,0m15.0152,-57.61373c8.55752,7.62771 15.26202,16.61529 20.24218,26.96009c2.16538,4.49803 6.14356,5.83833 9.8617,3.86539c3.5971,-1.90873 4.6611,-5.61652 2.82516,-9.8451c-13.97577,-32.18931 -50.82095,-55.97339 -85.87661,-55.43451c-4.88274,0.07504 -8.0101,2.76692 -8.04601,6.92557c-0.03581,4.1485 2.95509,6.93425 7.9251,7.07042c19.85205,0.54388 37.37603,7.14668 53.06848,20.45814z" fill="#FBF8EF"/>
  <path id="svg_4" d="m160.15951,371.15909c16.58401,-0.36786 33.10099,-0.3523 50.14786,0.01462c1.27709,5.22119 4.38671,6.87997 8.99039,6.81488c6.79845,-0.09613 13.59981,-0.07761 20.39889,-0.008c4.94796,0.05063 7.75214,-2.28442 8.48574,-7.15417c16.52147,-0.01261 33.04292,-0.02518 50.00334,-0.10456c1.92551,6.05381 3.35965,7.22373 9.74579,7.22745c29.97238,0.01746 59.94473,0.00827 89.91711,0.00858c1.76929,0.00003 3.53855,0 6.46552,0c-6.15274,7.64111 -11.61969,14.44928 -17.10999,21.23861c-1.88208,2.32737 -4.22253,4.38425 -5.65643,6.95377c-3.40662,6.10455 -8.49289,7.00455 -15.0177,6.98578c-74.43079,-0.21408 -148.86243,-0.10916 -223.29353,-0.25333c-2.48084,-0.00482 -5.77593,-1.03152 -7.30092,-2.78866c-8.1703,-9.41431 -15.90458,-19.20734 -23.76913,-28.88608c-0.60584,-0.74558 -1.05445,-1.6189 -2.09994,-3.25013c5.89614,0 11.1121,0.00028 16.32807,-0.00006c8.32565,-0.00054 16.65132,-0.00552 24.97697,-0.00048c4.48779,0.00271 7.7341,-1.66593 8.78796,-6.79822z" fill="#2D3C6B"/>
  <path id="svg_5" d="m222.76975,279.85901c10.10244,-16.58844 27.08094,-23.69077 44.60284,-18.91199c16.52798,4.50769 28.30267,19.63843 28.60989,36.76437c0.28415,15.83796 -8.8558,30.08484 -23.38806,36.4564c-14.44723,6.33419 -31.2581,3.33377 -42.63139,-7.60892c-11.44193,-11.00879 -15.03484,-27.47293 -9.20578,-42.28195c0.5466,-1.38868 1.21994,-2.72745 2.0125,-4.41791m51.85693,1.0184c-8.92636,-7.99329 -20.25769,-9.55234 -29.87564,-4.1105c-9.2737,5.24704 -14.38019,16.13641 -12.29259,26.21347c2.14418,10.35031 10.08334,18.36197 19.81867,19.99957c10.83106,1.82196 21.14018,-2.88794 26.37684,-12.05078c5.47327,-9.57684 4.19303,-20.32218 -4.02728,-30.05176z" fill="#030303"/>
  <path id="svg_6" d="m139.88117,272.7706c16.96525,-7.47101 34.50286,-0.50558 40.49491,15.77744c5.85511,15.91082 -2.98033,33.1174 -19.41891,37.81726c-13.7889,3.94235 -28.41161,-2.98136 -34.23945,-16.21204c-6.14224,-13.94443 -1.02999,-28.7739 13.16345,-37.38266m14.4573,10.85291c-11.44452,-0.72208 -17.29732,9.73156 -15.94395,17.08853c1.43228,7.78616 7.7267,12.95455 15.45777,12.64178c7.4312,-0.30066 13.60972,-6.1579 14.19727,-13.45895c0.66029,-8.20502 -4.19141,-14.29813 -13.71109,-16.27136z" fill="#030403"/>
  <path id="svg_7" d="m389.1795,304.0163c-3.72711,15.12014 -15.97299,24.40631 -30.28497,23.32284c-13.97067,-1.05762 -25.41742,-11.79626 -26.85767,-25.19629c-1.57604,-14.66418 7.09598,-27.63562 21.12144,-31.59277c20.39428,-5.75412 39.77731,11.99728 36.0212,33.46622m-13.81195,-8.6753c-3.4869,-11.28137 -15.27255,-15.48181 -23.87594,-8.50943c-5.57502,4.51813 -7.21716,12.06925 -4.00144,18.39985c3.28229,6.46163 10.72986,9.62896 17.72095,7.53634c6.97131,-2.08673 10.94898,-8.46628 10.15643,-17.42676z" fill="#030403"/>
  <path id="svg_8" d="m248.11969,370.46509c-0.6709,5.23108 -3.47508,7.56613 -8.42304,7.5155c-6.79908,-0.06961 -13.60044,-0.08813 -20.39889,0.008c-4.60368,0.06509 -7.7133,-1.59369 -8.54391,-6.8526c0.57479,-5.14222 3.34106,-7.28412 8.09541,-7.2323c6.98669,0.07623 13.97566,0.08282 20.96211,-0.00434c4.42876,-0.05523 7.33936,1.68662 8.30832,6.56574z" fill="#010203"/>
  <path id="svg_9" d="m310.75098,161.22815c-15.42829,-13.07471 -32.95227,-19.67751 -52.80432,-20.22139c-4.97001,-0.13617 -7.96091,-2.92192 -7.9251,-7.07042c0.03591,-4.15865 3.16327,-6.85053 8.04601,-6.92557c35.05566,-0.53888 71.90084,23.2452 85.87661,55.43451c1.83594,4.22858 0.77194,7.93637 -2.82516,9.8451c-3.71814,1.97294 -7.69632,0.63264 -9.8617,-3.86539c-4.98016,-10.3448 -11.68466,-19.33238 -20.50634,-27.19684z" fill="#050504"/>
  <path id="svg_10" d="m274.88043,281.13202c7.96656,9.47497 9.2468,20.22031 3.77353,29.79715c-5.23666,9.16284 -15.54578,13.87274 -26.37684,12.05078c-9.73533,-1.6376 -17.67449,-9.64926 -19.81867,-19.99957c-2.0876,-10.07706 3.01889,-20.96643 12.29259,-26.21347c9.61795,-5.44184 20.94928,-3.88279 30.12939,4.36511z" fill="#FDC639"/>
  <path id="svg_11" d="m154.76747,283.68829c9.09068,1.90845 13.94238,8.00156 13.28209,16.20658c-0.58755,7.30105 -6.76607,13.15829 -14.19727,13.45895c-7.73107,0.31277 -14.02549,-4.85562 -15.45777,-12.64178c-1.35337,-7.35697 4.49943,-17.81061 16.37295,-17.02375z" fill="#FCC538"/>
  <path id="svg_12" d="m375.48273,295.72498c0.67737,8.5765 -3.3003,14.95605 -10.27161,17.04278c-6.99109,2.09262 -14.43866,-1.07471 -17.72095,-7.53634c-3.21572,-6.3306 -1.57358,-13.88172 4.00144,-18.39985c8.60339,-6.97238 20.38904,-2.77194 23.99112,8.89341z" fill="#FCC538"/>
 </g>
</svg>